<?xml version="1.0" encoding="utf-8"?>
<!-- Generator: Adobe Illustrator 28.3.0, SVG Export Plug-In . SVG Version: 6.00 Build 0)  -->
<svg version="1.1" id="Layer_1" transform="rotate(0)"
	 xmlns="http://www.w3.org/2000/svg" xmlns:xlink="http://www.w3.org/1999/xlink" x="0px" y="0px" viewBox="0 0 800 566"
	 style="enable-background:new 0 0 800 566;" xml:space="preserve">
<style type="text/css">
	.st0{fill:#6C0345;}
</style>
<g id="SVGRepo_bgCarrier">
</g>
<g id="SVGRepo_tracerCarrier">
</g>
<g id="SVGRepo_iconCarrier">
	<path class="st0" d="M71.8,12.2c-23.3,0-42.1,18.9-42.1,42.1v387.5c0,23.2,21.2,44.4,44.4,44.4h60.6c7.1,42,43.5,74.1,87.5,74.1
		s80.4-32.1,87.5-74.1h137c23.2,0,42.1-18.9,42.1-42.1V55.3c0-23.7-18.7-43.1-41.7-43.1H71.8z M518.5,115.9v370.4
		c7.1,42,44.9,74.1,88.9,74.1c44,0,80.4-32.1,87.5-74.1h31c23.3,0,44.4-21.2,44.4-44.4V299.3c0-29.8-21.5-60.2-24.1-63.9L684.7,153
		c-14.1-17-36.3-37-62.5-37H518.5z M592.6,190h82.9l47.2,63c5,7.1,18.1,28.9,18.1,46.3v9.3H592.6c-14.8,0-29.6-14.8-29.6-29.6v-59.3
		C563,203.3,577.8,190,592.6,190z M222.2,412.2c32.7,0,59.3,26.6,59.3,59.3s-26.6,59.3-59.3,59.3S163,504.2,163,471.5
		S189.5,412.2,222.2,412.2z M607.4,412.2c32.7,0,59.3,26.6,59.3,59.3s-26.6,59.3-59.3,59.3s-59.3-26.6-59.3-59.3
		S574.7,412.2,607.4,412.2z"/>
</g>
</svg>
